<?xml version="1.0" encoding="UTF-8"?>
<!-- Generated by Pixelmator Pro 3.6.6 -->
<svg width="3600" height="2338" viewBox="0 0 3600 2338" xmlns="http://www.w3.org/2000/svg">
    <g id="Associer">
        <path id="Rectangle" fill="#b51700" fill-opacity="0.431086" fill-rule="evenodd" stroke="#b51700" stroke-width="18.351433" stroke-linecap="round" d="M 90.206383 2170.16748 L 1928.205444 2170.16748 L 1928.205444 332.168457 L 90.206383 332.168457 Z"/>
        <path id="Ligne" fill="none" stroke="#000000" stroke-width="17.004599" stroke-linecap="round" d="M 608.855408 189.977051 L 2995.806641 189.977051"/>
        <path id="Ligne-copie-15" fill="none" stroke="#000000" stroke-width="17.004599" stroke-linecap="round" d="M 2995.806641 1686.483521 L 2995.806641 189.977051"/>
        <path id="Ligne-copie-16" fill="none" stroke="#000000" stroke-width="19.118797" stroke-linecap="round" d="M 2995.806641 1686.483521 L 2913.055908 1686.483521"/>
        <path id="Ligne-copie-19" fill="none" stroke="#000000" stroke-width="19.118797" stroke-linecap="round" d="M 3210.259277 1250.585205 L 2913.055908 1250.585205"/>
        <path id="Ligne-copie-22" fill="none" stroke="#ff2200" stroke-width="19.118797" stroke-linecap="round" d="M 3263.872314 1293.708862 L 2906.062744 1293.708862"/>
        <path id="Ligne-copie-23" fill="none" stroke="#ff2200" stroke-width="19.118797" stroke-linecap="round" d="M 3263.872314 1293.708862 L 3263.872314 365.96814"/>
        <path id="Ligne-copie-24" fill="none" stroke="#ff2200" stroke-width="19.118797" stroke-linecap="round" d="M 3304.665039 299.534424 L 3263.872314 365.96814"/>
        <path id="Ligne-copie-20" fill="none" stroke="#000000" stroke-width="19.118797" stroke-linecap="round" d="M 3210.259277 1250.585205 L 3210.259277 332.168457"/>
        <path id="Ligne-copie-21" fill="none" stroke="#000000" stroke-width="18.351433" stroke-linecap="round" d="M 3261.54126 266.900391 L 3210.259277 332.168457"/>
        <path id="Ligne-copie-3" fill="none" stroke="#000000" stroke-width="17.004599" stroke-linecap="round" d="M 608.855408 189.977051 L 608.855408 256.410889"/>
        <path id="Ligne-copie" fill="none" stroke="#ff2200" stroke-width="17.004599" stroke-linecap="round" d="M 382.747742 156.17749 L 3205.597168 156.17749"/>
        <path id="Ligne-copie-5" fill="none" stroke="#ff2200" stroke-width="17.004599" stroke-linecap="round" d="M 1632.16748 2291.379883 L 2995.806641 2291.379883"/>
        <path id="Ligne-copie-17" fill="none" stroke="#ff2200" stroke-width="17.004599" stroke-linecap="round" d="M 2995.806641 1729.607178 L 2995.804688 2291.380127"/>
        <path id="Ligne-copie-18" fill="none" stroke="#ff2200" stroke-width="17.004599" stroke-linecap="round" d="M 2995.806641 1729.607178 L 2913.056641 1729.606934"/>
        <path id="Ligne-copie-6" fill="none" stroke="#ff2200" stroke-width="17.004599" stroke-linecap="round" d="M 1632.16748 2291.379883 L 1632.16748 2247.09082"/>
        <path id="Ligne-copie-4" fill="none" stroke="#000000" stroke-width="17.004599" stroke-linecap="round" d="M 1397.901245 2338 L 3360.609131 2338"/>
        <path id="Ligne-copie-14" fill="none" stroke="#000000" stroke-width="17.004599" stroke-linecap="round" d="M 3360.609131 306.527466 L 3360.609131 2338"/>
        <path id="Circle" fill="none" stroke="#000000" stroke-width="18.351433" stroke-linecap="round" d="M 3509.793701 149.76709 C 3509.793701 67.052979 3442.740479 0 3360.026367 0 C 3277.312256 0 3210.259277 67.052979 3210.259277 149.76709 C 3210.259277 232.481445 3277.312256 299.534424 3360.026367 299.534424 C 3442.740479 299.534424 3509.793701 232.481445 3509.793701 149.76709 Z"/>
        <path id="path1" fill="none" stroke="#000000" stroke-width="18.351433" stroke-linecap="round" d="M 3263.872314 149.184326 C 3263.872314 149.184326 3284.042725 108.445068 3312.823486 108.391846 C 3341.533936 108.338623 3360.609131 149.184326 3360.609131 149.184326 M 3457.346436 149.185547 C 3457.346436 149.185547 3437.175049 189.924316 3408.394287 189.977051 C 3379.683838 190.029785 3360.609619 149.18335 3360.609619 149.18335"/>
        <path id="Ligne-copie-8" fill="none" stroke="#000000" stroke-width="17.004599" stroke-linecap="round" d="M 2283.68042 903.851196 L 2610.024902 904.430664"/>
        <path id="Ligne-copie-11" fill="none" stroke="#000000" stroke-width="17.004599" stroke-linecap="round" d="M 2610.026123 1188.812866 L 2610.024902 904.430664"/>
        <path id="Ligne-copie-9" fill="none" stroke="#ff2200" stroke-width="17.004599" stroke-linecap="round" d="M 2283.68042 943.478271 L 2565.74585 943.478271"/>
        <path id="Ligne-copie-10" fill="none" stroke="#ff2200" stroke-width="18.351431" stroke-linecap="round" d="M 2565.735107 1188.813599 L 2565.746094 943.478394"/>
        <path id="Ligne-copie-12" fill="none" stroke="#ff2200" stroke-width="18.351431" stroke-linecap="round" d="M 2565.73584 1395.107666 L 2565.731689 1585.084717"/>
        <path id="Ligne-copie-13" fill="none" stroke="#000000" stroke-width="18.351431" stroke-linecap="round" d="M 2610.024902 1395.107666 L 2610.020996 1585.084717"/>
        <path id="Ligne-copie-7" fill="none" stroke="#000000" stroke-width="17.004599" stroke-linecap="round" d="M 1397.901245 2338 L 1397.901245 2241.263184"/>
        <path id="Ligne-copie-2" fill="none" stroke="#ff0000" stroke-width="17.004599" stroke-linecap="round" d="M 382.747742 156.17749 L 382.747742 262.238281"/>
        <text id="INSIDE" xml:space="preserve" x="648.541343" y="1311" font-family="CMU Serif" font-size="206.967154" font-weight="500" fill="#000000">INSIDE</text>
        <path id="path2" fill="#ff9400" fill-rule="evenodd" stroke="#b45f06" stroke-width="18.351433" stroke-linecap="round" d="M 322.141571 403.26416 L 686.944153 403.26416 L 686.944153 262.238281 L 322.141571 262.238281 Z"/>
        <path id="Rectangle-copie-2" fill="#38761d" fill-opacity="0.317551" fill-rule="evenodd" stroke="#6aa84f" stroke-width="10.192909" stroke-linecap="round" d="M 2312.821533 1390.445679 L 2906.062744 1390.445679 L 2906.062744 1196.972046 L 2312.821533 1196.972046 Z"/>
        <path id="Rectangle-copie-3" fill="#38761d" fill-opacity="0.317551" fill-rule="evenodd" stroke="#6aa84f" stroke-width="10.192909" stroke-linecap="round" d="M 2312.821533 1783.220337 L 2906.062744 1783.220337 L 2906.062744 1589.746826 L 2312.821533 1589.746826 Z"/>
        <path id="Rectangle-copie" fill="#ff9400" fill-rule="evenodd" stroke="#b45f06" stroke-width="18.351433" stroke-linecap="round" d="M 1326.805542 2241.263184 L 1691.608154 2241.263184 L 1691.608154 2100.237305 L 1326.805542 2100.237305 Z"/>
        <path id="Rectangle-copie-4" fill="#ff9400" fill-rule="evenodd" stroke="#b45f06" stroke-width="18.351433" stroke-linecap="round" d="M 1571.561279 1015.153564 L 2283.683838 1015.153564 L 2283.683838 874.127563 L 1571.561279 874.127563 Z"/>
        <text id="lamp" xml:space="preserve" x="387.114068" y="366" font-family="CMU Serif" font-size="110.722832" font-style="italic" font-weight="500" fill="#000000">lamp</text>
        <text id="PID-Ctrl" xml:space="preserve" x="2392.231045" y="1327" font-family="CMU Serif" font-size="110.722832" font-style="italic" font-weight="500" fill="#000000">PID Ctrl</text>
        <text id="Relay" xml:space="preserve" x="2476.286775" y="1720" font-family="CMU Serif" font-size="110.722832" font-style="italic" font-weight="500" fill="#000000">Relay</text>
        <text id="text1" xml:space="preserve" x="1392.114068" y="2204" font-family="CMU Serif" font-size="110.722832" font-style="italic" font-weight="500" fill="#000000">lamp</text>
        <text id="thermometer" xml:space="preserve" x="1619.295594" y="978" font-family="CMU Serif" font-size="110.722832" font-style="italic" font-weight="500" fill="#000000">thermometer</text>
    </g>
</svg>
