<?xml version="1.0" encoding="UTF-8"?>
<!-- Generated by Pixelmator Pro 3.6.6 -->
<svg width="7246" height="1538" viewBox="0 0 7246 1538" xmlns="http://www.w3.org/2000/svg">
    <path id="Rectangle" fill="#45818e" fill-rule="evenodd" stroke="#000000" stroke-width="5" stroke-linecap="round" d="M 212 934 L 4758.881348 1417 L 4758.881348 1417 L 7247 1417 L 7247 148 L 4778.812988 155 L 212 645"/>
    <path id="Rectangle-copie-7" fill="#45818e" fill-rule="evenodd" stroke="#000000" stroke-linecap="round" d="M 213 934 L 4784.881348 1417 L 7248 1417 L 7248 148 L 4779.812988 155 L 213 645"/>
    <path id="Circle-copie" fill="#45818e" fill-rule="evenodd" stroke="#000000" stroke-linecap="round" d="M 213.601089 645 C 141.286728 653.230225 76.10762 714.625488 76.10762 789.141907 C 76.10762 862.857178 140.811035 924.731812 212 934"/>
    <path id="path1" fill="#e06666" fill-rule="evenodd" stroke="none" d="M 212 907 L 7246 907 L 7246 671 L 212 671 Z"/>
    <path id="Rectangle-copie" fill="#e06666" fill-rule="evenodd" stroke="none" d="M 1952 487 L 7246 487 L 7246 671 L 1952 671 Z"/>
    <path id="Rectangle-copie-5" fill="#6aa84f" fill-rule="evenodd" stroke="none" d="M 1952 487 L 7246 487 L 7246 183 L 4788.706543 183 Z"/>
    <path id="Rectangle-copie-6" fill="#6aa84f" fill-rule="evenodd" stroke="none" d="M 1952 1091 L 7246 1091 L 7246 1395 L 4788.706543 1395 Z"/>
    <text id="G10-Fin-Core" xml:space="preserve" x="314.972656" y="476" font-family="CMU Serif" font-size="166" font-weight="500" fill="#e06666">G10 Fin Core</text>
    <text id="G10-Fiberglass-Layup" xml:space="preserve" x="1015.380859" y="1344" font-family="CMU Serif" font-size="166" font-weight="500" fill="#45818e">G10 Fiberglass Layup</text>
    <text id="Carbon-Fiber-Layups-7" xml:space="preserve" x="960.513184" y="197" font-family="CMU Serif" font-size="166" font-weight="500" fill="#6aa84f">Carbon Fiber Layups (7) - 0 0 45 0 45 0 0</text>
    <path id="Rectangle-copie-4" fill="#e06666" fill-rule="evenodd" stroke="none" d="M 1952 907 L 7246 907 L 7246 1091 L 1952 1091 Z"/>
    <path id="Rectangle-copie-2" fill="#e06666" fill-rule="evenodd" stroke="none" d="M 1968 487 L 222 671 L 1968 671 Z"/>
    <path id="Rectangle-copie-3" fill="#e06666" fill-rule="evenodd" stroke="none" d="M 1968 1091 L 222 907 L 1968 907 Z"/>
    <path id="Circle" fill="#e06666" fill-rule="evenodd" stroke="#000000" stroke-linecap="round" d="M 221.5 671 C 156.330444 671 103.5 723.830444 103.5 789 C 103.5 854.169556 156.330444 907 221.5 907 M 221.5 671"/>
    <path id="Ligne" fill="none" stroke="#000000" stroke-linecap="round" d="M 7246.003418 183 L 4780.977051 183"/>
    <path id="Ligne-copie" fill="none" stroke="#000000" stroke-linecap="round" d="M 7246.003418 1391 L 4780.977051 1391"/>
    <path id="Ligne-copie-2" fill="none" stroke="#000000" stroke-linecap="round" d="M 212.002014 906.980042 L 4780.977051 1391"/>
    <path id="Ligne-copie-3" fill="none" stroke="#000000" stroke-linecap="round" d="M 212.002014 906.980042 L 7245.999023 906.925415"/>
    <path id="Ligne-copie-4" fill="none" stroke="#000000" stroke-linecap="round" d="M 222.000641 670.981018 L 7245.998047 670.972656"/>
    <path id="Ligne-copie-5" fill="none" stroke="#000000" stroke-linecap="round" d="M 1946.001709 486.000122 L 7245.998535 488.95874"/>
    <path id="Ligne-copie-6" fill="none" stroke="#000000" stroke-linecap="round" d="M 1961.998413 1091.994995 L 7246.001465 1090.987671"/>
    <path id="path2" fill="none" stroke="#000000" stroke-linecap="round" d="M 4780.999512 182.993286 L 212.0009 671.008484"/>
    <path id="path3" fill="none" stroke="#000000" stroke-linecap="round" d="M 7246.011719 1416.993408 L 7246 160"/>
</svg>
